<svg width="412" height="412" viewBox="0 0 412 412" fill="none" xmlns="http://www.w3.org/2000/svg">
<rect width="412" height="412" rx="72" fill="black" style="fill:black;fill-opacity:1;"/>
<path d="M244.682 42.1865C274.092 49.7096 298.52 65.0471 321.633 83.567C310.852 84.9002 300.019 84.6298 289.849 87.9203C278.743 91.5134 268.9 90.0461 257.963 85.6185C187.214 56.9783 112.95 90.3257 84.8181 151.844C73.0059 177.675 69.1393 204.755 75.2214 232.872C75.6981 235.076 76.1163 237.187 78.1315 239.246C81.7706 237.923 84.0751 234.74 86.6831 232.03C142.375 174.159 208.911 133.993 285.514 110.088C303.829 104.372 322.467 102.727 341.455 103.716C352.381 104.285 362.508 112.031 362.004 121.758C361.117 138.896 366.972 154.434 370.647 170.554C382.19 221.198 370.431 266.932 339.492 307.697C310.713 345.615 271.577 367.291 224.534 372.802C127.232 384.2 51.1604 312.548 38.9155 231.068C25.0681 138.925 88.3015 62.2778 163.95 42.973C190.386 36.2268 217.248 36.7218 244.682 42.1865ZM305.512 293.881C339.256 253.924 348.367 209.257 331.257 159.574C323.905 138.223 321.176 136.941 299.026 142.661C258.975 153.003 223.531 173.121 188.444 194.074C154.77 214.184 125.639 239.724 99.0715 268.354C95.2825 272.437 92.5728 276.146 96.9315 282.022C122.813 316.908 157.171 337.048 200.647 338.43C241.45 339.726 276.726 325.261 305.512 293.881Z" fill="white" style="fill:white;fill-opacity:1;"/>
</svg>
